<svg id="Ebene_1" data-name="Ebene 1" xmlns="http://www.w3.org/2000/svg" viewBox="0 0 2410.97 417.88"><defs><style>.cls-1{fill:#00d96e;}</style></defs><path d="M2393.45,96.57H2370.8a7.55,7.55,0,0,0-7,4.76L2293.11,279l-71-177.68a7.54,7.54,0,0,0-7-4.75h-22.66a7.54,7.54,0,0,0-7.54,7.55V317.36a7.54,7.54,0,0,0,7.54,7.55h4.74a17.22,17.22,0,0,0,17.19-17.2V159.49l64.93,160.7a7.55,7.55,0,0,0,7,4.72h13.3a7.56,7.56,0,0,0,7-4.72l64.92-160.7V307.71a17.22,17.22,0,0,0,17.2,17.2h4.73a7.55,7.55,0,0,0,7.55-7.55V104.12A7.55,7.55,0,0,0,2393.45,96.57Z"/><path d="M541.45,324.91h4.74a17.22,17.22,0,0,0,17.19-17.2V149.5L678.29,321.55a7.55,7.55,0,0,0,6.28,3.36h19.78a7.54,7.54,0,0,0,7.54-7.55V104.12a7.54,7.54,0,0,0-7.54-7.55h-4.74a17.22,17.22,0,0,0-17.19,17.2V274.54L567.53,100a7.55,7.55,0,0,0-6.3-3.4H541.45a7.54,7.54,0,0,0-7.54,7.55V317.36A7.54,7.54,0,0,0,541.45,324.91Z"/><path d="M759,324.91H898.13a7.55,7.55,0,0,0,7.55-7.55v-4a17.21,17.21,0,0,0-17.2-17.19H780.9V221H887.34a7.55,7.55,0,0,0,7.55-7.54V200.13a7.55,7.55,0,0,0-7.55-7.55H780.9V125.69H888.48a17.22,17.22,0,0,0,17.2-17.2v-4.37a7.55,7.55,0,0,0-7.55-7.55H759a7.55,7.55,0,0,0-7.55,7.55V317.36A7.55,7.55,0,0,0,759,324.91Z"/><path d="M964.15,304.07c17.18,15.62,38,23.53,61.89,23.53,23.24,0,43.38-8,59.87-23.65s25-35.18,25-57.61V104.15a7.55,7.55,0,0,0-7.54-7.55h-4.74a17.22,17.22,0,0,0-17.2,17.2V246.34c0,14.77-5.24,27-16,37.3-11.12,10.47-24,15.57-39.42,15.57-16.4,0-29.9-5.11-41.31-15.67-11.41-10.34-17-22.51-17-37.2V113.8a17.22,17.22,0,0,0-17.19-17.2h-4.74a7.55,7.55,0,0,0-7.55,7.55V246.34c0,22.48,8.68,41.88,25.81,57.69Z"/><path d="M1700.24,317.36v-4a17.21,17.21,0,0,0-17.19-17.19h-97.51V113.77a17.22,17.22,0,0,0-17.2-17.2h-4.74a7.55,7.55,0,0,0-7.55,7.55V317.36a7.55,7.55,0,0,0,7.55,7.55h129.1A7.54,7.54,0,0,0,1700.24,317.36Z"/><path d="M1513,324.91a7.55,7.55,0,0,0,7.55-7.55V172.44c0-22.48-8.68-41.88-25.81-57.68l0-.05c-17.18-15.62-38-23.53-61.89-23.53-23.24,0-43.38,8-59.87,23.65s-25,35.18-25,57.61V317.36a7.55,7.55,0,0,0,7.54,7.55h4.74a17.22,17.22,0,0,0,17.2-17.2v-79H1491v79a17.22,17.22,0,0,0,17.19,17.2ZM1377.39,200.35V172.44c0-14.77,5.24-27,16-37.3,11.12-10.47,24-15.56,39.42-15.56,16.4,0,29.9,5.1,41.31,15.66,11.41,10.34,17,22.51,17,37.2v27.91Z"/><path d="M1306,200.53c7-11.16,10.48-24.39,10.48-39.33,0-17.41-5.9-32.38-17.5-44.45-11.75-12.48-26.19-18.82-42.91-18.82H1154.28a7.53,7.53,0,0,0-7.55,7.51v212a7.53,7.53,0,0,0,7.55,7.51H1159a17.15,17.15,0,0,0,17.2-17.1V257.88h0V164.4h0V126.88h77.32A31.65,31.65,0,0,1,1277.09,137a36.24,36.24,0,0,1,9.88,25.67c0,10.26-3.21,18.63-9.8,25.59s-14.46,10.52-23.64,10.52h-9.79a17.43,17.43,0,0,0-17.49,17.38V227h27.28c7.2,0,13.26,3.82,18.55,11.7,6.06,8.94,9.14,19.92,9.14,32.89l1.08,30.38c0,.15,0,.29,0,.44a61,61,0,0,0,1.71,10.11,17,17,0,0,0,16.55,12.42h8.31a7.51,7.51,0,0,0,6.47-11.38c-.21-.34-1.28-2.4-1.83-9.35-.46-4.7-.69-12-.69-21.8,0-18.83-3-35.23-8.89-48.75q-5-11.48-12-18.29A51,51,0,0,0,1306,200.53Z"/><path d="M2119.58,306.82A17.21,17.21,0,0,0,2136.77,324h4.74a7.53,7.53,0,0,0,7.54-7.54V171.55c0-22.48-8.68-41.89-25.8-57.69,0,0,0,0,0,0-17.18-15.62-38-23.53-61.89-23.53-23.24,0-43.39,8-59.87,23.65s-25,35.19-25,57.61V316.47A7.54,7.54,0,0,0,1984,324h4.74a17.21,17.21,0,0,0,17.19-17.19V228.17h113.65Zm-113.65-107V171.55c0-14.78,5.24-27,16-37.3,11.12-10.47,24-15.56,39.42-15.56,16.4,0,29.9,5.1,41.31,15.66,11.4,10.34,16.95,22.51,16.95,37.2v28.24Z"/><path d="M1942.52,106.13a9.56,9.56,0,0,0-9.56-9.56h-.72a19.2,19.2,0,0,0-19.2,19.21V223.19a73,73,0,0,1-73,73h-22.55a19.2,19.2,0,0,0-19.2,19.2,9.56,9.56,0,0,0,9.55,9.56h34.49a100.15,100.15,0,0,0,100.15-100.14Z"/><path class="cls-1" d="M219.84,201a11,11,0,0,1,5.7,4.55c2.31-9,1.29-18.25-2.82-25.54-9.07-12.64-21.47-18.8-37.9-18.8-15.5,0-32.28,5.61-45.77,10.12l-.14.05C71.32,197.68,45.18,257.87,43.28,305.4c-1.77,44.07,16.21,81.83,45.8,96.21,32.33,15.69,75.5,3.08,121.6-35.46-21.41-14.22-41.27-35.3-56-59.41l-.36-.55v-.66c-.68-26.54,4.51-63.8,33.18-90.59C195.45,208.24,210.13,197.49,219.84,201Z"/><path class="cls-1" d="M348.74,319.31c-28.29,3.24-60-1.39-89.42-13-23.36-9.29-45.55-23.16-62.47-39h0l-.15-.1a166.42,166.42,0,0,1-20.35-22.95c-10.28,21.42-13.48,36-13.15,59.4,15,24.2,35.31,44.88,57.15,58.24,28.8,18.33,60,22.6,85.52,11.77C327.38,364.46,342.59,345.2,348.74,319.31Z"/><path class="cls-1" d="M426.58,254.21c5.66-17.18,9.18-52.11-30.51-93.6-9.27,34.46-34.7,62.71-71.68,79.6a182.61,182.61,0,0,1-111.91,12.15c-2.1,3.25-4.51,6.69-7.33,10.49,38.48,35.22,100.9,54.88,148.52,46.85C389.14,304.39,417.07,283.13,426.58,254.21Z"/><path class="cls-1" d="M162.42,71.19c-.71,0-1.42,0-2.15,0-41.81,0-84.1,29.09-105.7,56.12l-.08.17c-30.75,34.2-48,83.48-43.93,125.62,2.15,22.59,10.32,40.78,23.62,52.7,2.52-63.1,43.21-120.36,101.5-142.68,31.42-14.18,62.39-11.87,77.84-3.76a39.05,39.05,0,0,1,18.61,20.52c5.58-29.62.63-59.1-13.32-79.15C205.2,81.91,185.7,71.7,162.42,71.19Z"/><path class="cls-1" d="M285.31,230.75c27.85-20,46.42-54.49,47.31-87.92,1.23-24-6.82-50.16-22.67-73.54-17.39-24.59-42.52-42.64-72.67-52.2a160.44,160.44,0,0,0-87.53-2.47C99.4,27.6,64.58,64,56.33,112.23c2.76-2.87,5.33-5.38,8-7.83,29.18-28.47,70.34-44.78,104.77-41.58,23.62,2.17,43.25,13.43,56.77,32.56,14.18,20.85,19.79,47.5,16.22,77.09-2.89,24.06-11.73,49.66-24.91,72.14C240.2,250.7,264.35,245.77,285.31,230.75Z"/><path class="cls-1" d="M390.26,135.51c-2.12-23.7-15.11-47.17-36.58-66.1-17.47-15.39-40-27.12-62-32.35,10.36,8.77,18.76,17.64,25,26.41a126.49,126.49,0,0,1,23.66,90.33,123.4,123.4,0,0,1-45.27,80.76l-.25.21A87.53,87.53,0,0,1,280,245a144.74,144.74,0,0,0,70.84-31.17C376.63,192.46,390.64,164.65,390.26,135.51Z"/></svg>